<?xml version="1.0" standalone="no"?>
<!DOCTYPE svg PUBLIC "-//W3C//DTD SVG 20010904//EN"
 "http://www.w3.org/TR/2001/REC-SVG-20010904/DTD/svg10.dtd">
<svg version="1.0" xmlns="http://www.w3.org/2000/svg"
 width="1500.000000pt" height="1500.000000pt" viewBox="0 0 1500.000000 1500.000000"
 preserveAspectRatio="xMidYMid meet">
<metadata>
Created by potrace 1.14, written by Peter Selinger 2001-2017
</metadata>
<g transform="translate(0.000000,1500.000000) scale(0.100000,-0.100000)"
fill="#000000" stroke="none">
<path d="M12890 14968 c0 -8 -24 -88 -54 -178 -29 -91 -93 -286 -141 -435 -48
-148 -97 -297 -108 -330 -16 -46 -23 -93 -27 -205 l-5 -145 -137 -3 -138 -3 0
145 c0 162 14 105 -160 661 -39 127 -90 289 -112 360 -22 72 -42 132 -44 134
-4 4 -27 -47 -90 -204 -25 -60 -49 -119 -54 -130 -5 -11 -21 -49 -35 -85 -14
-36 -30 -74 -35 -85 -11 -24 -112 -271 -164 -400 l-36 -90 -2 -905 -3 -905
-103 -3 -102 -3 -153 67 c-583 254 -1086 442 -1692 633 -365 115 -860 247
-1235 331 -52 11 -115 26 -140 31 -65 15 -381 78 -475 94 -769 134 -1299 196
-2010 237 -289 17 -1328 17 -1620 0 -723 -41 -1461 -130 -2090 -250 -103 -20
-97 -9 -74 -146 7 -44 19 -80 26 -83 7 -3 41 0 75 6 645 118 1381 210 1878
236 63 3 192 11 285 17 94 6 413 11 710 11 297 0 617 -5 710 -11 94 -6 222
-14 285 -17 274 -14 891 -78 1170 -121 52 -8 156 -23 230 -35 161 -25 486 -82
625 -111 55 -11 129 -26 165 -34 290 -58 832 -193 1105 -275 55 -17 132 -39
170 -51 134 -39 454 -143 695 -226 297 -103 868 -329 1120 -445 188 -86 124
-77 570 -77 l398 0 -1 133 c-2 211 44 339 162 457 78 78 123 97 186 77 55 -17
142 -106 182 -188 56 -112 68 -176 67 -336 l-2 -143 179 0 178 0 3 -242 c2
-134 1 -246 -3 -251 -3 -4 -448 -6 -989 -5 l-983 3 -19 70 c-44 161 -166 360
-280 457 -117 99 -229 160 -374 204 -79 24 -105 27 -239 28 -126 0 -164 -3
-235 -23 -304 -81 -568 -330 -660 -622 l-21 -69 -140 0 c-76 0 -139 3 -139 8
-1 19 -42 203 -56 247 -209 657 -798 1095 -1474 1095 -749 0 -1386 -548 -1518
-1305 l-17 -100 -218 -3 c-169 -2 -219 0 -222 10 -3 7 -16 66 -30 131 -139
666 -601 1226 -1203 1461 -209 82 -360 110 -592 110 -204 1 -301 -15 -484 -76
-570 -191 -1036 -722 -1175 -1338 -46 -207 -58 -500 -28 -680 27 -161 89 -321
170 -440 42 -61 151 -174 212 -220 222 -165 616 -273 1130 -310 179 -13 721
-13 935 0 163 10 461 37 490 45 8 2 33 6 55 9 22 3 92 12 155 20 538 70 1240
116 1777 116 909 0 1525 -110 1698 -303 42 -45 45 -53 45 -103 0 -198 -143
-254 -610 -240 -324 9 -574 36 -1215 127 -154 22 -336 46 -405 54 -149 18
-378 19 -452 4 -167 -36 -283 -146 -328 -311 -20 -75 -9 -201 23 -268 67 -139
243 -245 517 -309 170 -39 377 -74 550 -91 438 -44 507 -63 590 -157 46 -52
71 -97 103 -183 20 -52 21 -79 25 -500 2 -245 1 -491 -3 -547 l-7 -103 -129 0
-129 0 0 -55 0 -56 -338 3 -338 3 -52 34 c-68 44 -109 90 -292 333 -254 337
-337 437 -479 578 -202 200 -376 314 -581 379 -223 71 -387 77 -775 25 -752
-101 -1397 -428 -1840 -934 -286 -328 -447 -661 -787 -1635 -188 -540 -337
-1003 -454 -1410 -18 -66 -40 -142 -48 -170 -36 -124 -149 -598 -185 -775
-183 -907 -212 -1656 -84 -2235 114 -517 355 -915 720 -1189 188 -141 428
-226 638 -226 81 0 227 22 323 49 272 75 616 282 982 591 145 123 488 459 667
655 316 346 529 568 583 608 94 71 137 83 355 96 530 32 1332 37 3690 21 1119
-7 1141 -7 1215 -28 79 -23 126 -44 176 -79 30 -21 206 -204 529 -548 149
-159 324 -342 525 -548 295 -303 605 -536 879 -659 36 -16 79 -35 95 -43 60
-27 142 -55 231 -76 106 -26 347 -32 453 -11 394 79 755 374 978 799 130 248
218 533 271 878 15 98 18 180 18 450 0 318 -2 375 -25 646 -56 655 -225 1455
-464 2199 -21 63 -43 135 -51 160 -22 74 -213 622 -270 775 -15 39 -30 81 -35
95 -4 14 -19 54 -33 90 -14 36 -68 180 -121 320 -177 477 -190 508 -263 655
-341 686 -949 1169 -1738 1383 -215 59 -448 99 -701 123 -390 36 -760 -91
-1051 -361 -85 -78 -256 -276 -439 -506 -375 -474 -386 -486 -453 -504 -25 -6
-157 -9 -358 -8 l-318 3 -3 53 -3 52 -129 0 -130 0 3 523 c2 470 0 531 -16
611 -45 220 -167 394 -331 472 -93 44 -211 69 -456 94 -249 26 -258 27 -423
56 -364 64 -539 137 -583 241 -18 42 -18 69 2 126 53 156 197 170 814 81 477
-69 825 -112 1070 -132 47 -4 222 -7 390 -7 287 0 310 1 383 23 158 46 244
109 301 222 64 128 69 276 15 383 -83 162 -315 287 -669 360 -323 67 -583 88
-1145 94 -757 8 -1322 -28 -2125 -137 -118 -16 -267 -32 -330 -35 -63 -4 -173
-11 -245 -16 -197 -14 -581 -11 -813 6 -403 31 -688 93 -892 195 -231 116
-362 301 -415 585 -14 72 -16 125 -12 260 9 280 58 485 167 700 231 455 645
782 1088 861 102 18 327 20 427 4 458 -73 899 -390 1157 -830 140 -238 225
-505 237 -740 l6 -125 440 0 440 0 6 135 c20 427 235 806 594 1047 215 144
448 215 710 216 219 0 366 -31 551 -118 284 -132 529 -382 655 -665 67 -151
88 -237 101 -413 l12 -157 340 2 340 3 22 113 c51 252 185 428 409 538 70 34
114 48 193 61 95 15 109 15 203 0 237 -39 442 -197 544 -420 38 -82 64 -200
65 -294 l0 -43 1205 0 1205 0 -2 1408 -3 1407 -58 160 c-32 88 -80 223 -107
300 -27 77 -72 205 -100 285 -29 80 -55 156 -59 169 -8 27 -31 41 -31 19z
m-896 -845 l56 -182 0 -245 0 -246 365 0 365 0 0 218 0 219 61 189 c34 104 65
193 69 197 4 5 16 -15 25 -45 10 -29 33 -96 52 -148 l33 -95 0 -447 0 -448
-125 0 -125 0 0 -65 0 -65 125 0 125 0 0 -30 0 -30 -125 0 -125 0 0 -60 0 -60
125 0 125 0 0 -30 0 -30 -105 0 -105 0 0 -60 0 -60 105 0 105 0 0 -220 0 -221
-62 3 -62 3 -12 76 c-41 269 -176 479 -364 568 -46 21 -70 25 -145 26 -82 0
-96 -3 -160 -34 -51 -25 -91 -55 -150 -115 -110 -111 -174 -237 -207 -409
l-23 -118 -30 3 -30 3 0 215 0 215 83 3 82 3 0 59 0 59 -82 3 c-82 3 -83 3
-86 31 l-3 27 135 0 136 0 0 60 0 59 -132 3 -133 3 -3 27 -3 27 133 3 133 3 3
62 3 62 -133 3 -133 3 -3 412 -2 413 56 137 c31 76 66 160 76 188 22 54 29 68
33 63 1 -2 28 -85 59 -185z m-7124 -5790 c172 -38 308 -112 482 -261 141 -121
254 -254 538 -632 235 -312 323 -395 473 -447 l69 -24 1066 1 c660 0 1082 4
1109 11 54 12 135 52 185 91 20 16 118 131 218 256 457 573 568 699 704 804
136 105 292 174 460 204 192 34 533 2 870 -81 678 -166 1199 -528 1543 -1070
102 -161 216 -423 378 -871 19 -50 51 -138 74 -195 73 -190 256 -703 330 -924
90 -270 154 -482 241 -790 77 -277 166 -684 224 -1030 88 -529 127 -1241 86
-1576 -70 -570 -296 -1047 -614 -1293 -202 -156 -373 -220 -586 -219 -168 0
-274 30 -501 143 -204 100 -429 261 -604 430 -122 118 -422 425 -595 610 -407
433 -577 608 -630 651 -93 76 -197 119 -375 155 -80 17 -134 18 -505 16 -228
-2 -984 2 -1680 8 -1524 14 -2392 2 -2865 -40 -113 -9 -201 -40 -300 -105 -74
-47 -290 -264 -580 -580 -387 -422 -669 -690 -931 -888 -535 -402 -917 -502
-1261 -330 -219 109 -465 368 -594 625 -46 91 -96 212 -116 283 -58 201 -81
311 -110 520 -27 197 -24 719 5 989 65 595 200 1228 417 1956 26 85 53 175 60
200 39 132 175 545 245 745 17 50 65 185 105 300 100 287 242 668 275 740 5
11 20 48 34 81 193 473 491 836 906 1107 394 256 863 401 1460 451 71 6 219
-5 290 -21z"/>
<path d="M3865 7223 c-101 -21 -187 -66 -254 -131 -106 -104 -105 -100 -111
-447 -5 -292 -6 -301 -28 -341 -45 -78 -47 -78 -397 -84 l-310 -5 -57 -27
c-108 -50 -190 -164 -222 -305 -33 -148 -14 -357 41 -467 33 -66 111 -146 170
-177 47 -24 53 -24 364 -29 l316 -5 40 -27 c74 -49 77 -64 83 -398 5 -290 5
-296 30 -344 78 -154 256 -249 465 -249 197 -1 361 75 448 206 59 88 68 149
66 436 -1 284 3 302 72 348 l42 28 316 5 c312 5 317 5 365 30 61 31 141 118
173 188 74 161 70 431 -8 583 -33 65 -122 154 -182 180 -50 23 -65 24 -362 29
-209 3 -317 9 -330 17 -11 6 -33 25 -50 43 l-30 31 -6 297 c-4 241 -9 305 -22
340 -82 213 -352 333 -622 275z m295 -163 c104 -41 172 -108 191 -187 5 -21 9
-157 8 -302 l0 -264 31 -63 c37 -75 92 -126 167 -154 49 -18 78 -20 341 -20
258 0 291 -2 327 -19 53 -25 88 -64 120 -134 25 -54 27 -66 26 -200 -1 -79 -6
-158 -11 -176 -15 -53 -58 -118 -97 -148 l-36 -28 -311 -6 c-353 -7 -367 -9
-453 -84 -28 -24 -61 -66 -74 -92 -23 -47 -24 -57 -29 -348 -5 -287 -6 -302
-27 -335 -75 -121 -243 -187 -404 -160 -92 16 -151 42 -206 93 -79 73 -78 66
-80 392 l-3 290 -31 63 c-34 70 -93 126 -167 156 -42 18 -79 20 -359 25 l-311
6 -39 30 c-23 19 -52 58 -73 100 l-35 70 0 145 c1 130 3 151 24 200 30 68 73
117 126 141 36 17 69 19 327 19 335 0 361 5 447 89 85 82 91 113 94 445 2 313
2 310 74 381 41 40 123 82 188 95 64 14 194 4 255 -20z"/>
<path d="M10790 7215 c-204 -50 -362 -204 -415 -405 -8 -31 -15 -100 -15 -157
0 -174 63 -319 187 -433 95 -87 256 -149 385 -150 69 0 185 27 253 59 246 116
380 381 325 646 -43 208 -234 402 -438 444 -71 15 -214 13 -282 -4z m334 -174
c141 -69 235 -205 244 -350 8 -143 -28 -242 -123 -336 -213 -214 -564 -158
-696 110 -33 68 -34 73 -34 190 0 110 2 125 27 178 37 79 77 127 141 171 84
58 153 77 273 73 90 -2 107 -6 168 -36z"/>
<path d="M6410 6601 c-74 -23 -145 -83 -183 -156 -17 -31 -21 -59 -21 -125 -1
-73 3 -92 26 -136 33 -63 91 -116 154 -140 47 -18 93 -19 1119 -19 l1070 0 51
27 c150 79 205 253 128 404 -30 60 -77 103 -145 134 -43 19 -69 20 -1109 19
-586 0 -1076 -4 -1090 -8z"/>
<path d="M9930 6274 c-160 -34 -312 -149 -382 -289 -103 -205 -85 -434 48
-622 159 -223 471 -295 734 -169 92 44 215 167 258 259 82 172 82 345 0 516
-45 96 -168 216 -268 264 -120 57 -252 71 -390 41z m313 -171 c278 -131 343
-479 129 -692 -170 -170 -447 -172 -615 -5 -59 60 -95 128 -113 216 -44 212
64 416 257 487 80 29 86 30 184 28 77 -2 99 -7 158 -34z"/>
<path d="M11671 6274 c-105 -23 -187 -69 -272 -154 -116 -115 -169 -242 -169
-405 0 -385 353 -660 724 -565 110 28 190 74 271 155 91 91 141 188 163 320
15 87 15 100 -1 186 -26 133 -66 208 -162 304 -88 88 -168 134 -278 160 -76
18 -191 18 -276 -1z m324 -174 c173 -82 278 -274 247 -450 -34 -190 -173 -330
-361 -362 -225 -38 -440 103 -490 322 -34 147 13 316 114 409 96 89 192 123
330 117 78 -3 101 -8 160 -36z"/>
<path d="M10806 5334 c-184 -40 -341 -172 -411 -346 -37 -95 -47 -259 -20
-366 62 -253 291 -432 553 -432 334 0 594 254 594 580 0 373 -344 643 -716
564z m239 -149 c85 -22 149 -61 209 -126 80 -86 108 -154 114 -269 3 -79 0
-105 -17 -155 -43 -122 -133 -217 -251 -266 -45 -19 -75 -23 -160 -23 -148 -1
-210 23 -305 119 -98 97 -120 156 -120 315 1 103 3 121 27 171 87 184 304 285
503 234z"/>
<path d="M5975 3814 c-46 -17 -78 -44 -114 -99 -25 -39 -26 -44 -26 -205 0
-91 3 -177 8 -193 11 -39 75 -107 122 -128 37 -17 75 -19 450 -19 377 0 413 2
450 19 49 22 87 57 112 102 15 29 18 58 18 209 0 151 -3 180 -18 209 -25 45
-63 80 -112 102 -37 17 -72 19 -445 18 -328 0 -413 -3 -445 -15z m882 -85 c58
-36 65 -62 64 -232 -2 -134 -4 -155 -22 -184 -42 -68 -41 -68 -472 -71 -378
-3 -390 -2 -432 18 -75 36 -85 65 -85 243 0 167 6 188 66 228 27 18 54 19 438
19 398 0 410 -1 443 -21z"/>
<path d="M8150 3506 c0 -173 4 -317 8 -320 7 -4 63 11 367 100 66 20 172 51
235 69 63 18 153 45 200 58 47 14 125 37 173 51 49 14 94 29 100 33 6 3 -41
21 -104 40 -63 18 -143 42 -179 53 -188 56 -788 230 -794 230 -3 0 -6 -141 -6
-314z m205 178 c44 -12 190 -55 325 -94 135 -40 256 -75 270 -79 32 -9 20 -16
-84 -46 -47 -14 -125 -37 -173 -51 -137 -40 -323 -94 -373 -108 -25 -7 -55
-16 -67 -20 l-23 -7 0 221 0 221 23 -7 c12 -4 58 -17 102 -30z"/>
</g>
</svg>
