<?xml version="1.0" standalone="no"?>
<!DOCTYPE svg PUBLIC "-//W3C//DTD SVG 20010904//EN"
 "http://www.w3.org/TR/2001/REC-SVG-20010904/DTD/svg10.dtd">
<svg version="1.0" xmlns="http://www.w3.org/2000/svg"
 width="1920.000000pt" height="1920.000000pt" viewBox="0 0 1920.000000 1920.000000"
 preserveAspectRatio="xMidYMid meet">
<metadata>
Created by potrace 1.14, written by Peter Selinger 2001-2017
</metadata>
<g transform="translate(0.000000,1920.000000) scale(0.100000,-0.100000)"
fill="#000000" stroke="none">
<path d="M8240 17422 c0 -5 -111 -12 -247 -16 -145 -4 -249 -11 -251 -16 -2
-6 -37 -10 -78 -10 -41 0 -74 -4 -74 -9 0 -5 -58 -12 -130 -16 -71 -4 -130
-11 -130 -16 0 -5 -22 -9 -50 -9 -27 0 -50 -4 -50 -9 0 -4 -42 -11 -92 -15
-51 -4 -95 -11 -98 -15 -3 -5 -44 -12 -92 -16 -49 -4 -88 -11 -88 -16 0 -5
-16 -9 -35 -9 -19 0 -35 -4 -35 -9 0 -4 -31 -12 -70 -15 -38 -4 -70 -11 -70
-17 0 -5 -16 -9 -35 -9 -19 0 -35 -4 -35 -9 0 -4 -28 -11 -62 -15 -34 -3 -64
-10 -68 -15 -3 -5 -33 -13 -68 -17 -34 -3 -62 -11 -62 -15 0 -5 -13 -9 -30 -9
-16 0 -30 -4 -30 -9 0 -5 -22 -12 -50 -16 -27 -4 -50 -11 -50 -16 0 -5 -13 -9
-30 -9 -16 0 -30 -4 -30 -9 0 -5 -22 -12 -50 -16 -27 -4 -50 -11 -50 -15 0 -4
-22 -11 -50 -15 -27 -4 -50 -11 -50 -16 0 -5 -11 -9 -25 -9 -14 0 -25 -4 -25
-9 0 -5 -22 -12 -50 -16 -27 -4 -50 -11 -50 -16 0 -5 -9 -9 -20 -9 -11 0 -20
-4 -20 -9 0 -6 -20 -13 -45 -17 -25 -3 -45 -10 -45 -14 0 -5 -18 -11 -40 -15
-22 -4 -40 -11 -40 -16 0 -5 -11 -9 -25 -9 -14 0 -25 -4 -25 -10 0 -5 -18 -13
-40 -16 -22 -4 -40 -10 -40 -15 0 -5 -7 -9 -15 -9 -8 0 -15 -4 -15 -9 0 -5
-18 -11 -40 -15 -22 -3 -40 -10 -40 -15 0 -5 -18 -11 -40 -15 -22 -3 -40 -11
-40 -16 0 -6 -7 -10 -15 -10 -8 0 -15 -4 -15 -9 0 -6 -20 -13 -45 -17 -25 -3
-45 -10 -45 -15 0 -5 -7 -9 -15 -9 -8 0 -15 -4 -15 -9 0 -5 -13 -12 -30 -16
-16 -4 -30 -10 -30 -15 0 -4 -16 -11 -35 -14 -19 -4 -35 -11 -35 -16 0 -6 -7
-10 -15 -10 -8 0 -15 -4 -15 -10 0 -5 -16 -12 -35 -16 -19 -3 -35 -10 -35 -15
0 -5 -7 -9 -15 -9 -8 0 -15 -4 -15 -9 0 -5 -14 -12 -30 -16 -16 -4 -30 -10
-30 -15 0 -4 -16 -11 -35 -14 -19 -4 -35 -11 -35 -16 0 -6 -7 -10 -15 -10 -8
0 -15 -4 -15 -10 0 -5 -16 -12 -35 -16 -19 -3 -35 -10 -35 -15 0 -5 -7 -9 -15
-9 -8 0 -15 -4 -15 -9 0 -5 -11 -12 -25 -15 -14 -4 -25 -10 -25 -15 0 -5 -14
-12 -30 -16 -16 -4 -30 -11 -30 -16 0 -5 -7 -9 -15 -9 -8 0 -15 -4 -15 -10 0
-5 -11 -12 -25 -16 -14 -3 -25 -10 -25 -15 0 -5 -9 -9 -19 -9 -10 0 -21 -7
-25 -15 -3 -8 -12 -15 -21 -15 -8 0 -15 -4 -15 -10 0 -5 -9 -10 -20 -10 -11 0
-23 -7 -26 -15 -4 -8 -15 -15 -25 -15 -10 0 -19 -4 -19 -10 0 -5 -7 -10 -15
-10 -9 0 -18 -7 -21 -15 -4 -8 -15 -15 -25 -15 -10 0 -19 -4 -19 -9 0 -5 -11
-12 -25 -15 -14 -4 -25 -11 -25 -16 0 -6 -7 -10 -15 -10 -9 0 -18 -7 -21 -15
-4 -8 -14 -15 -24 -15 -10 0 -20 -7 -24 -15 -3 -8 -14 -15 -25 -15 -11 0 -22
-9 -26 -20 -3 -11 -12 -20 -20 -20 -7 0 -20 -6 -27 -14 -8 -7 -24 -17 -36 -20
-12 -4 -22 -12 -22 -17 0 -5 -5 -9 -11 -9 -7 0 -22 -11 -35 -25 -13 -14 -30
-25 -37 -25 -8 0 -17 -7 -21 -15 -3 -8 -12 -15 -21 -15 -9 0 -26 -11 -39 -25
-13 -14 -27 -25 -31 -25 -4 0 -18 -11 -31 -25 -13 -14 -28 -25 -34 -25 -6 0
-21 -11 -34 -25 -13 -14 -27 -25 -31 -25 -4 0 -18 -11 -31 -25 -13 -14 -28
-25 -35 -25 -6 0 -25 -13 -41 -30 -15 -16 -35 -30 -42 -30 -8 0 -17 -9 -21
-19 -3 -11 -15 -23 -26 -26 -10 -4 -19 -10 -19 -15 0 -4 -11 -11 -25 -14 -14
-4 -25 -10 -25 -15 0 -12 -48 -61 -60 -61 -6 0 -35 -25 -65 -55 -29 -30 -60
-55 -68 -55 -9 0 -19 -9 -22 -20 -3 -11 -10 -20 -15 -20 -7 0 -24 -15 -77 -72
-19 -20 -42 -38 -48 -38 -10 0 -425 -418 -425 -427 0 -5 -8 -16 -17 -25 -10
-9 -23 -23 -30 -30 -7 -7 -18 -18 -25 -25 -7 -7 -18 -18 -25 -25 -6 -7 -23
-22 -37 -33 -14 -11 -25 -26 -26 -34 0 -8 -22 -36 -50 -62 -27 -26 -50 -52
-50 -58 0 -5 -18 -28 -40 -50 -22 -22 -40 -43 -40 -47 0 -4 -13 -20 -30 -36
-16 -15 -30 -33 -30 -39 0 -7 -15 -26 -34 -43 -18 -18 -37 -42 -40 -54 -4 -11
-16 -24 -26 -27 -10 -3 -22 -16 -26 -28 -4 -12 -17 -32 -30 -44 -13 -12 -24
-29 -24 -36 0 -8 -7 -17 -15 -21 -8 -3 -15 -14 -15 -25 0 -11 -9 -22 -19 -26
-11 -3 -23 -16 -27 -28 -4 -12 -17 -32 -30 -44 -13 -12 -24 -29 -24 -36 0 -8
-7 -17 -15 -21 -8 -3 -15 -11 -15 -17 0 -6 -8 -19 -19 -28 -10 -9 -21 -26 -25
-38 -4 -13 -11 -23 -16 -23 -4 0 -11 -11 -14 -25 -4 -14 -11 -25 -16 -25 -6 0
-10 -7 -10 -15 0 -8 -4 -15 -9 -15 -5 0 -13 -10 -17 -22 -4 -13 -14 -30 -24
-38 -9 -8 -19 -23 -23 -32 -3 -10 -11 -18 -17 -18 -5 0 -10 -9 -10 -20 0 -11
-7 -23 -15 -26 -8 -4 -15 -15 -15 -25 0 -10 -4 -19 -10 -19 -5 0 -10 -7 -10
-15 0 -9 -7 -18 -15 -21 -8 -4 -15 -15 -15 -25 0 -10 -4 -19 -10 -19 -5 0 -10
-6 -10 -14 0 -8 -6 -21 -14 -28 -7 -8 -17 -25 -21 -38 -4 -14 -16 -32 -26 -41
-10 -8 -21 -27 -24 -42 -4 -15 -11 -27 -16 -27 -5 0 -9 -7 -9 -15 0 -8 -4 -15
-10 -15 -5 0 -12 -11 -16 -25 -3 -14 -10 -25 -14 -25 -4 0 -11 -16 -14 -35 -4
-19 -11 -35 -16 -35 -6 0 -10 -7 -10 -15 0 -8 -4 -15 -9 -15 -5 0 -12 -11 -15
-25 -4 -14 -11 -25 -16 -25 -6 0 -10 -7 -10 -15 0 -8 -4 -15 -10 -15 -5 0 -12
-16 -16 -35 -3 -19 -10 -35 -14 -35 -5 0 -11 -13 -15 -30 -4 -16 -11 -30 -16
-30 -5 0 -9 -7 -9 -15 0 -8 -4 -15 -9 -15 -5 0 -12 -16 -15 -35 -4 -19 -11
-35 -16 -35 -6 0 -10 -7 -10 -15 0 -8 -4 -15 -10 -15 -5 0 -13 -18 -16 -40 -4
-22 -10 -40 -14 -40 -4 0 -11 -16 -14 -35 -4 -19 -11 -35 -16 -35 -6 0 -10 -7
-10 -15 0 -8 -4 -15 -10 -15 -5 0 -13 -18 -16 -40 -4 -22 -10 -40 -15 -40 -5
0 -9 -9 -9 -20 0 -11 -4 -20 -10 -20 -5 0 -13 -18 -16 -40 -4 -22 -10 -40 -15
-40 -5 0 -12 -18 -15 -40 -4 -22 -10 -40 -15 -40 -5 0 -9 -7 -9 -15 0 -8 -4
-15 -9 -15 -5 0 -11 -18 -15 -40 -3 -22 -11 -40 -16 -40 -6 0 -10 -11 -10 -25
0 -14 -4 -25 -10 -25 -5 0 -13 -18 -16 -40 -4 -22 -10 -40 -14 -40 -4 0 -10
-18 -14 -40 -3 -22 -11 -40 -16 -40 -6 0 -10 -11 -10 -25 0 -14 -4 -25 -9 -25
-5 0 -12 -22 -16 -50 -4 -27 -11 -50 -16 -50 -5 0 -9 -11 -9 -25 0 -14 -4 -25
-9 -25 -5 0 -12 -21 -16 -47 -4 -27 -11 -51 -16 -54 -5 -3 -12 -29 -16 -57 -3
-29 -10 -52 -14 -52 -5 0 -9 -11 -9 -25 0 -14 -4 -25 -9 -25 -5 0 -12 -25 -16
-55 -3 -30 -11 -55 -16 -55 -5 0 -9 -16 -9 -35 0 -19 -4 -35 -9 -35 -5 0 -12
-25 -16 -55 -3 -30 -10 -55 -15 -55 -5 0 -11 -34 -15 -75 -4 -41 -11 -75 -16
-75 -5 0 -9 -13 -9 -30 0 -16 -4 -30 -9 -30 -5 0 -12 -34 -16 -75 -4 -41 -11
-75 -16 -75 -5 0 -9 -18 -9 -40 0 -22 -4 -40 -9 -40 -5 0 -13 -40 -17 -90 -3
-49 -10 -90 -14 -90 -4 0 -11 -43 -15 -95 -4 -52 -11 -95 -16 -95 -5 0 -9 -27
-9 -60 0 -33 -4 -60 -9 -60 -5 0 -12 -61 -16 -135 -4 -74 -11 -135 -16 -135
-5 0 -9 -40 -9 -89 0 -63 -4 -91 -12 -93 -10 -4 -13 -149 -13 -683 0 -534 3
-679 13 -682 8 -3 12 -31 12 -94 0 -49 4 -89 9 -89 5 0 12 -61 16 -135 4 -74
11 -135 16 -135 5 0 9 -27 9 -60 0 -33 4 -60 9 -60 5 0 12 -43 16 -95 4 -52
11 -95 15 -95 4 0 11 -41 14 -90 4 -49 12 -90 17 -90 5 0 9 -18 9 -40 0 -22 4
-40 9 -40 5 0 12 -34 16 -75 4 -41 11 -75 16 -75 5 0 9 -13 9 -30 0 -16 4 -30
9 -30 5 0 12 -34 16 -75 4 -41 10 -75 15 -75 5 0 12 -25 15 -55 4 -30 11 -55
16 -55 5 0 9 -16 9 -35 0 -19 4 -35 9 -35 5 0 13 -25 16 -55 4 -30 11 -55 16
-55 5 0 9 -11 9 -25 0 -14 4 -25 9 -25 5 0 13 -25 16 -55 4 -30 11 -55 15 -55
5 0 11 -23 15 -50 4 -28 11 -50 16 -50 5 0 9 -11 9 -25 0 -14 4 -25 9 -25 5 0
12 -22 16 -50 4 -28 11 -50 16 -50 5 0 9 -11 9 -25 0 -14 4 -25 10 -25 5 0 13
-18 16 -40 4 -22 10 -40 14 -40 4 0 10 -18 14 -40 3 -22 11 -40 16 -40 6 0 10
-11 10 -25 0 -14 4 -25 10 -25 5 0 13 -18 16 -40 4 -22 10 -40 15 -40 5 0 9
-7 9 -15 0 -8 4 -15 9 -15 5 0 11 -18 15 -40 3 -22 10 -40 15 -40 5 0 11 -18
15 -40 3 -22 11 -40 16 -40 6 0 10 -9 10 -20 0 -11 4 -20 9 -20 5 0 11 -18 15
-40 3 -22 11 -40 16 -40 6 0 10 -7 10 -15 0 -8 4 -15 10 -15 5 0 12 -16 16
-35 3 -19 10 -35 15 -35 5 0 12 -18 15 -40 4 -22 10 -40 15 -40 5 0 9 -7 9
-15 0 -8 4 -15 10 -15 5 0 12 -16 16 -35 3 -19 10 -35 15 -35 5 0 9 -7 9 -15
0 -8 4 -15 9 -15 5 0 12 -13 16 -30 4 -17 10 -30 15 -30 4 0 11 -16 14 -35 4
-19 11 -35 16 -35 6 0 10 -7 10 -15 0 -8 4 -15 10 -15 5 0 12 -11 16 -25 3
-14 10 -25 15 -25 5 0 9 -7 9 -15 0 -8 4 -15 10 -15 5 0 12 -16 16 -35 3 -19
10 -35 14 -35 4 0 11 -11 14 -25 4 -14 11 -25 16 -25 6 0 10 -7 10 -15 0 -8 4
-15 9 -15 5 0 12 -12 16 -27 3 -15 14 -34 24 -42 10 -9 22 -27 26 -41 4 -13
14 -30 21 -38 8 -7 14 -20 14 -28 0 -8 5 -14 10 -14 6 0 10 -9 10 -19 0 -10 7
-21 15 -25 8 -3 15 -12 15 -21 0 -8 5 -15 10 -15 6 0 10 -9 10 -19 0 -10 7
-21 15 -25 8 -3 15 -14 15 -25 0 -10 7 -21 15 -25 8 -3 15 -11 15 -17 0 -6 8
-19 19 -28 10 -9 21 -26 25 -38 4 -13 12 -23 17 -23 5 0 9 -7 9 -15 0 -8 4
-15 10 -15 5 0 12 -11 16 -25 3 -14 10 -25 14 -25 5 0 12 -10 16 -22 4 -13 15
-30 25 -39 11 -9 19 -22 19 -28 0 -6 7 -14 15 -17 8 -4 15 -13 15 -21 0 -7 11
-24 24 -36 13 -12 26 -32 30 -44 4 -12 16 -25 27 -28 10 -4 19 -15 19 -26 0
-11 7 -22 15 -25 8 -4 15 -13 15 -21 0 -7 11 -24 24 -36 13 -12 26 -32 30 -44
4 -12 16 -25 26 -28 10 -3 22 -16 26 -27 3 -12 22 -36 40 -54 19 -17 34 -36
34 -43 0 -6 13 -24 30 -39 16 -16 30 -32 30 -36 0 -4 18 -25 40 -47 22 -22 40
-45 40 -50 0 -6 23 -32 50 -58 28 -26 50 -54 50 -62 1 -8 12 -23 26 -34 14
-11 31 -26 37 -33 7 -7 18 -18 25 -25 7 -7 18 -18 25 -25 7 -7 20 -21 29 -30
10 -9 18 -20 18 -25 0 -9 415 -427 425 -427 6 0 29 -18 48 -38 53 -57 70 -72
77 -72 5 0 12 -9 15 -20 3 -11 13 -20 22 -20 8 0 39 -25 68 -55 30 -30 59 -55
65 -55 12 0 60 -49 60 -61 0 -5 11 -11 25 -15 14 -3 25 -10 25 -14 0 -5 9 -11
19 -15 11 -3 23 -15 26 -26 4 -10 13 -19 21 -19 7 0 27 -13 42 -30 16 -16 35
-30 41 -30 7 0 22 -11 35 -25 13 -14 27 -25 31 -25 4 0 18 -11 31 -25 13 -14
28 -25 34 -25 6 0 21 -11 33 -24 12 -13 32 -26 44 -30 12 -4 25 -16 28 -27 4
-10 15 -19 26 -19 11 0 22 -7 25 -15 4 -8 13 -15 21 -15 7 0 24 -11 37 -25 13
-14 28 -25 35 -25 6 0 11 -4 11 -9 0 -5 10 -13 22 -17 12 -3 28 -13 36 -20 7
-8 20 -14 27 -14 8 0 17 -9 20 -20 4 -11 15 -20 26 -20 11 0 22 -7 25 -15 4
-8 14 -15 24 -15 10 0 20 -7 24 -15 3 -8 12 -15 21 -15 8 0 15 -4 15 -10 0 -5
9 -10 20 -10 11 0 23 -7 26 -15 4 -8 14 -15 24 -15 10 0 20 -7 24 -15 3 -8 12
-15 21 -15 8 0 15 -4 15 -10 0 -5 9 -10 19 -10 10 0 21 -7 25 -15 3 -8 15 -15
26 -15 11 0 20 -4 20 -10 0 -5 7 -10 15 -10 9 0 18 -7 21 -15 4 -8 15 -15 25
-15 10 0 19 -4 19 -9 0 -5 11 -12 25 -15 14 -4 25 -11 25 -16 0 -6 7 -10 15
-10 8 0 15 -4 15 -9 0 -5 14 -12 30 -16 16 -4 30 -11 30 -16 0 -5 9 -9 20 -9
11 0 23 -7 26 -15 4 -8 12 -15 20 -15 8 0 14 -4 14 -9 0 -5 16 -12 35 -15 19
-4 35 -11 35 -16 0 -6 7 -10 15 -10 8 0 15 -4 15 -10 0 -5 16 -12 35 -16 19
-3 35 -10 35 -14 0 -5 14 -11 30 -15 16 -4 30 -11 30 -16 0 -5 7 -9 15 -9 8 0
15 -4 15 -9 0 -5 16 -12 35 -15 19 -4 35 -11 35 -16 0 -6 7 -10 15 -10 8 0 15
-4 15 -10 0 -5 16 -12 35 -16 19 -3 35 -10 35 -14 0 -5 13 -11 30 -15 16 -4
30 -11 30 -16 0 -5 7 -9 15 -9 8 0 15 -4 15 -9 0 -5 20 -12 45 -15 25 -4 45
-11 45 -17 0 -5 7 -9 15 -9 8 0 15 -4 15 -10 0 -5 18 -13 40 -16 22 -4 40 -10
40 -15 0 -5 18 -12 40 -15 22 -4 40 -10 40 -15 0 -5 7 -9 15 -9 8 0 15 -4 15
-9 0 -5 18 -11 40 -15 22 -3 40 -11 40 -16 0 -6 11 -10 25 -10 14 0 25 -4 25
-9 0 -5 18 -12 40 -16 22 -4 40 -10 40 -15 0 -4 20 -11 45 -14 25 -4 45 -11
45 -17 0 -5 9 -9 20 -9 11 0 20 -4 20 -9 0 -5 23 -12 50 -16 28 -4 50 -11 50
-16 0 -5 11 -9 25 -9 14 0 25 -4 25 -9 0 -5 23 -12 50 -16 28 -4 50 -11 50
-15 0 -4 23 -11 50 -15 28 -4 50 -11 50 -16 0 -5 14 -9 30 -9 17 0 30 -4 30
-9 0 -5 25 -13 55 -16 30 -4 55 -11 55 -16 0 -5 11 -9 25 -9 14 0 25 -4 25 -9
0 -5 29 -12 65 -16 36 -3 65 -10 65 -15 0 -4 29 -11 65 -15 36 -3 65 -11 65
-16 0 -5 16 -9 35 -9 19 0 35 -4 35 -9 0 -6 32 -13 70 -17 39 -3 70 -11 70
-15 0 -5 20 -9 45 -9 25 0 45 -4 45 -9 0 -5 36 -12 80 -16 44 -4 80 -11 80
-15 0 -4 43 -11 95 -15 52 -4 95 -11 95 -16 0 -5 23 -9 50 -9 28 0 50 -4 50
-9 0 -5 59 -12 130 -16 72 -4 130 -11 130 -16 0 -5 33 -9 74 -9 41 0 76 -4 78
-10 2 -6 107 -12 261 -16 141 -4 257 -11 257 -16 0 -4 131 -8 290 -8 160 0
290 4 290 8 0 5 114 12 253 16 145 4 253 11 255 16 2 6 39 10 83 10 43 0 79 4
79 9 0 5 54 12 120 16 66 4 120 11 120 16 0 5 27 9 60 9 33 0 60 4 60 9 0 5
41 12 90 16 50 4 90 11 90 15 0 4 41 11 90 15 50 4 90 11 90 16 0 5 18 9 40 9
22 0 40 4 40 9 0 6 32 13 70 17 39 3 70 11 70 15 0 5 16 9 35 9 19 0 35 4 35
9 0 5 29 13 65 16 36 4 65 11 65 15 0 5 25 12 55 15 30 4 55 11 55 16 0 5 16
9 35 9 19 0 35 4 35 9 0 5 25 13 55 16 30 4 55 11 55 16 0 5 11 9 25 9 14 0
25 4 25 9 0 5 23 12 50 16 28 4 50 10 50 15 0 4 20 11 45 14 25 4 45 11 45 17
0 5 11 9 25 9 14 0 25 4 25 9 0 5 23 12 50 16 28 4 50 11 50 16 0 5 11 9 25 9
14 0 25 4 25 9 0 5 18 11 40 15 22 3 40 10 40 15 0 5 23 12 50 16 28 4 50 11
50 16 0 5 7 9 15 9 8 0 15 4 15 9 0 5 18 11 40 15 22 3 40 11 40 16 0 6 11 10
25 10 14 0 25 4 25 10 0 5 16 12 35 16 19 3 35 10 35 14 0 5 18 11 40 15 22 4
40 11 40 16 0 5 7 9 15 9 8 0 15 4 15 9 0 5 18 11 40 15 22 3 40 11 40 16 0 6
7 10 15 10 8 0 15 4 15 9 0 5 16 12 35 15 19 4 35 11 35 16 0 6 18 13 40 16
22 4 40 10 40 15 0 5 7 9 15 9 8 0 15 4 15 10 0 5 16 12 35 16 19 3 35 10 35
15 0 5 7 9 15 9 8 0 15 4 15 9 0 5 14 12 30 16 17 4 30 11 30 16 0 5 9 9 20 9
11 0 23 7 26 15 4 8 15 15 25 15 10 0 19 4 19 9 0 5 14 12 30 16 17 4 30 11
30 16 0 5 7 9 15 9 8 0 15 4 15 9 0 5 15 12 34 15 19 4 37 13 40 21 3 8 15 15
26 15 11 0 20 5 20 10 0 6 7 10 15 10 8 0 15 4 15 9 0 5 11 12 25 15 14 4 25
11 25 16 0 6 7 10 15 10 8 0 15 5 15 10 0 6 6 10 14 10 8 0 21 6 28 14 8 7 25
17 38 21 14 4 32 16 41 26 9 11 30 22 47 25 18 4 34 14 37 25 4 11 12 19 20
19 7 0 20 6 27 14 8 7 24 17 36 20 12 4 22 12 22 17 0 5 7 9 15 9 8 0 15 4 15
9 0 5 10 13 23 17 12 4 29 15 37 24 8 9 25 20 38 24 12 4 22 12 22 17 0 5 7 9
15 9 9 0 18 7 21 15 4 8 14 15 24 15 10 0 20 7 24 15 3 8 14 15 25 15 11 0 22
9 26 19 3 11 16 23 28 27 12 4 29 15 37 24 8 9 25 20 37 24 11 4 24 13 27 21
3 8 10 15 16 15 6 0 22 11 36 25 14 14 30 25 37 25 7 0 21 11 31 25 10 14 25
25 33 25 15 0 63 47 63 61 0 5 7 9 16 9 9 0 30 14 46 30 15 17 33 30 38 30 6
0 28 18 49 40 21 22 45 40 54 40 10 0 17 4 17 9 0 13 82 91 95 91 4 0 35 29
70 65 36 36 70 65 77 65 7 1 22 12 33 26 11 14 26 31 33 37 7 7 37 36 66 66
30 29 58 58 64 63 5 6 34 35 65 65 30 31 59 60 65 65 5 6 34 35 65 65 30 31
59 59 63 64 5 5 26 25 47 44 20 18 37 39 37 44 0 6 29 40 65 76 36 35 65 68
65 74 0 12 58 71 70 71 5 0 12 10 16 22 3 11 24 39 45 60 22 22 39 44 39 49 0
6 16 25 35 43 19 19 35 37 35 41 0 4 11 18 25 31 14 13 25 28 25 35 0 6 14 25
30 41 17 15 30 35 30 42 0 8 9 17 19 21 11 3 23 16 27 28 4 11 12 27 18 34 28
32 36 43 36 52 0 5 7 11 15 15 8 3 15 14 15 25 0 11 9 22 20 26 11 3 23 17 26
31 3 13 10 24 14 24 5 0 12 10 16 23 4 12 15 29 24 37 9 8 20 25 24 38 4 12
12 22 17 22 5 0 9 6 9 14 0 8 7 16 15 20 8 3 15 14 15 25 0 10 7 21 15 25 8 3
15 14 15 25 0 11 9 22 19 26 10 3 22 17 25 30 4 14 11 25 16 25 6 0 10 7 10
15 0 8 5 15 10 15 6 0 10 9 10 20 0 11 7 23 15 26 8 3 17 21 21 40 3 19 14 36
24 39 11 3 21 20 24 40 4 20 14 36 25 40 12 3 21 19 25 40 4 19 11 35 16 35 5
0 12 11 16 25 3 14 10 25 15 25 5 0 9 7 9 15 0 8 4 15 10 15 5 0 12 16 16 35
4 21 13 37 25 40 11 4 21 20 25 41 3 19 10 34 14 34 5 0 11 13 15 30 4 16 11
30 16 30 5 0 9 7 9 15 0 8 4 15 9 15 5 0 12 16 15 35 4 19 11 35 16 35 6 0 10
7 10 15 0 8 4 15 10 15 5 0 12 16 16 35 3 19 10 35 14 35 5 0 11 14 15 30 4
17 11 30 16 30 5 0 9 7 9 15 0 8 4 15 9 15 5 0 12 16 15 35 4 19 11 35 16 35
6 0 10 7 10 15 0 8 4 15 9 15 5 0 11 18 15 40 3 22 10 40 15 40 5 0 12 16 15
35 4 19 11 35 16 35 6 0 10 11 10 25 0 14 4 25 9 25 5 0 12 13 16 30 4 16 11
30 16 30 5 0 9 11 9 25 0 14 4 25 10 25 5 0 13 18 16 40 4 22 10 40 14 40 5 0
11 18 15 40 4 22 11 40 16 40 5 0 9 11 9 25 0 14 4 25 9 25 5 0 12 18 16 40 4
22 11 40 16 40 5 0 9 11 9 25 0 14 4 25 9 25 5 0 12 18 16 40 4 22 10 40 15
40 4 0 11 23 15 50 4 28 11 50 16 50 5 0 9 11 9 25 0 14 4 25 9 25 5 0 13 25
16 55 4 30 11 55 16 55 5 0 9 11 9 25 0 14 4 25 10 25 5 0 12 27 16 60 4 33
10 60 15 60 4 0 11 25 14 55 4 30 11 55 16 55 5 0 9 11 9 25 0 14 4 25 9 25 5
0 13 29 16 65 4 36 11 65 16 65 5 0 9 14 9 30 0 17 4 30 9 30 4 0 11 32 15 72
4 40 10 75 15 78 5 3 12 40 16 83 4 42 11 77 16 77 5 0 9 18 9 40 0 22 4 40 9
40 5 0 12 40 16 90 4 49 11 90 16 90 5 0 9 23 9 50 0 28 4 50 9 50 5 0 12 53
16 118 4 64 11 119 16 122 4 3 11 74 15 158 4 83 11 152 15 152 5 0 9 47 9
105 0 63 4 105 10 105 7 0 10 182 10 525 0 343 -3 525 -10 525 -6 0 -10 42
-10 105 0 58 -4 105 -9 105 -4 0 -11 69 -15 152 -4 84 -11 155 -15 158 -5 3
-12 58 -16 123 -4 64 -11 117 -16 117 -5 0 -9 23 -9 50 0 28 -4 50 -9 50 -5 0
-12 40 -16 90 -4 50 -11 90 -16 90 -5 0 -9 18 -9 40 0 22 -4 40 -9 40 -5 0
-12 35 -16 78 -4 42 -11 79 -16 82 -5 3 -11 38 -15 78 -4 40 -11 72 -15 72 -5
0 -9 14 -9 30 0 17 -4 30 -9 30 -5 0 -12 29 -16 65 -3 36 -11 65 -16 65 -5 0
-9 11 -9 25 0 14 -4 25 -9 25 -5 0 -12 25 -16 55 -3 30 -10 55 -14 55 -5 0
-11 27 -15 60 -4 33 -11 60 -16 60 -6 0 -10 11 -10 25 0 14 -4 25 -9 25 -5 0
-12 25 -16 55 -3 30 -11 55 -16 55 -5 0 -9 11 -9 25 0 14 -4 25 -9 25 -5 0
-12 23 -16 50 -4 28 -11 50 -15 50 -5 0 -11 18 -15 40 -4 22 -11 40 -16 40 -5
0 -9 11 -9 25 0 14 -4 25 -9 25 -5 0 -12 18 -16 40 -4 22 -11 40 -16 40 -5 0
-9 11 -9 25 0 14 -4 25 -9 25 -5 0 -12 18 -16 40 -4 22 -10 40 -15 40 -4 0
-10 18 -14 40 -3 22 -11 40 -16 40 -6 0 -10 11 -10 25 0 14 -4 25 -9 25 -5 0
-12 14 -16 30 -4 17 -11 30 -16 30 -5 0 -9 11 -9 25 0 14 -4 25 -10 25 -5 0
-12 16 -16 35 -3 19 -10 35 -15 35 -5 0 -12 18 -15 40 -4 22 -10 40 -15 40 -5
0 -9 7 -9 15 0 8 -4 15 -10 15 -5 0 -12 16 -16 35 -3 19 -10 35 -15 35 -5 0
-9 7 -9 15 0 8 -4 15 -9 15 -5 0 -12 14 -16 30 -4 17 -10 30 -15 30 -4 0 -11
16 -14 35 -4 19 -11 35 -16 35 -6 0 -10 7 -10 15 0 8 -4 15 -10 15 -5 0 -12
16 -16 35 -3 19 -10 35 -15 35 -5 0 -9 7 -9 15 0 8 -4 15 -9 15 -5 0 -12 14
-16 30 -4 17 -10 30 -15 30 -4 0 -11 15 -14 34 -4 21 -14 37 -25 41 -12 3 -21
19 -25 40 -4 19 -11 35 -16 35 -6 0 -10 7 -10 15 0 8 -4 15 -9 15 -5 0 -12 11
-15 25 -4 14 -11 25 -16 25 -5 0 -12 16 -16 35 -3 19 -10 35 -15 35 -5 0 -9 6
-9 14 0 8 -7 16 -15 20 -8 3 -15 15 -15 26 0 11 -4 20 -10 20 -5 0 -10 7 -10
15 0 8 -4 15 -10 15 -5 0 -12 11 -16 24 -3 14 -12 27 -20 30 -8 3 -14 15 -14
26 0 11 -4 20 -10 20 -5 0 -10 7 -10 15 0 8 -4 15 -10 15 -5 0 -12 11 -16 25
-3 13 -15 27 -25 30 -10 4 -19 15 -19 26 0 11 -7 22 -15 25 -8 4 -15 15 -15
25 0 11 -7 22 -15 25 -8 4 -15 12 -15 20 0 8 -4 14 -10 14 -20 0 -9 26 31 70
22 25 70 78 107 119 37 41 90 100 118 130 28 31 64 70 79 86 23 26 75 81 254
274 308 331 988 1010 1321 1321 19 17 82 76 139 129 57 53 119 110 136 126 18
17 68 62 111 100 43 39 88 79 100 90 60 54 179 162 198 178 36 31 138 121 150
132 6 6 76 67 156 135 80 69 147 127 150 130 3 3 25 21 50 41 25 20 57 47 71
60 14 13 84 71 155 129 145 118 197 168 189 180 -3 5 -54 7 -113 5 -162 -6
-353 -16 -387 -20 -16 -2 -70 -6 -120 -10 -49 -3 -101 -8 -115 -10 -14 -2 -50
-7 -80 -10 -30 -4 -66 -8 -80 -10 -14 -2 -45 -7 -70 -10 -173 -23 -546 -95
-569 -109 -4 -3 -21 -7 -37 -10 -46 -8 -304 -85 -328 -98 -11 -6 -22 -11 -23
-10 -14 8 -307 -114 -440 -183 -289 -150 -470 -292 -823 -645 -148 -149 -233
-238 -455 -480 -38 -41 -72 -77 -75 -80 -3 -3 -23 -25 -44 -50 -21 -25 -60
-68 -85 -95 -25 -28 -80 -88 -121 -135 -41 -47 -77 -87 -80 -90 -3 -3 -34 -39
-70 -80 -36 -41 -69 -80 -75 -86 -5 -6 -30 -35 -55 -64 -88 -103 -101 -116
-106 -102 -3 7 -31 37 -61 66 -30 30 -60 58 -65 64 -6 5 -35 34 -65 65 -31 30
-60 59 -65 65 -6 5 -34 34 -64 63 -29 30 -59 59 -66 66 -7 6 -22 23 -33 37
-11 14 -26 25 -33 26 -7 0 -41 29 -77 65 -35 36 -66 65 -70 65 -13 0 -95 78
-95 91 0 5 -7 9 -17 9 -9 0 -33 18 -54 40 -21 22 -43 40 -49 40 -5 0 -23 14
-38 30 -16 17 -37 30 -46 30 -9 0 -16 4 -16 9 0 14 -48 61 -63 61 -8 0 -23 11
-33 25 -10 14 -24 25 -31 25 -7 0 -23 11 -37 25 -14 14 -29 25 -34 25 -5 0
-18 11 -28 25 -10 14 -24 25 -30 25 -6 0 -21 9 -34 20 -13 11 -29 20 -36 20
-7 0 -16 9 -19 20 -4 11 -15 20 -26 20 -11 0 -22 7 -25 15 -4 8 -15 15 -25 15
-10 0 -19 5 -19 10 0 6 -8 14 -17 17 -10 4 -23 12 -30 17 -34 30 -43 36 -53
36 -5 0 -10 4 -10 10 0 5 -11 12 -25 16 -14 3 -25 10 -25 15 0 5 -7 9 -15 9
-8 0 -15 4 -15 9 0 5 -10 13 -22 17 -12 3 -28 13 -36 20 -7 8 -20 14 -27 14
-8 0 -16 8 -20 19 -3 11 -19 21 -37 25 -17 3 -38 14 -47 25 -9 10 -27 22 -41
26 -13 4 -30 14 -38 21 -7 8 -20 14 -28 14 -8 0 -14 5 -14 10 0 6 -7 10 -15
10 -8 0 -15 4 -15 10 0 5 -11 12 -25 16 -14 3 -25 10 -25 15 0 5 -7 9 -15 9
-8 0 -15 5 -15 10 0 6 -9 10 -20 10 -11 0 -23 7 -26 15 -3 8 -21 17 -40 21
-19 3 -34 10 -34 15 0 5 -7 9 -15 9 -8 0 -15 4 -15 9 0 5 -13 12 -30 16 -16 4
-30 11 -30 16 0 5 -9 9 -19 9 -10 0 -21 7 -25 15 -3 8 -15 15 -26 15 -11 0
-20 4 -20 9 0 5 -13 12 -30 16 -16 4 -30 11 -30 16 0 5 -7 9 -15 9 -8 0 -15 4
-15 9 0 5 -16 12 -35 15 -19 4 -35 11 -35 16 0 6 -7 10 -15 10 -8 0 -15 4 -15
10 0 5 -18 13 -40 16 -22 4 -40 10 -40 15 0 4 -16 11 -35 15 -19 3 -35 10 -35
15 0 5 -7 9 -15 9 -8 0 -15 4 -15 10 0 5 -18 13 -40 16 -22 4 -40 10 -40 15 0
5 -7 9 -15 9 -8 0 -15 4 -15 9 0 5 -18 12 -40 16 -22 4 -40 10 -40 15 0 4 -16
11 -35 14 -19 4 -35 11 -35 16 0 6 -11 10 -25 10 -14 0 -25 4 -25 10 0 5 -18
13 -40 16 -22 4 -40 10 -40 15 0 5 -7 9 -15 9 -8 0 -15 4 -15 9 0 5 -22 12
-50 16 -27 4 -50 11 -50 16 0 5 -18 12 -40 15 -22 4 -40 10 -40 15 0 5 -11 9
-25 9 -14 0 -25 4 -25 9 0 5 -22 12 -50 16 -27 4 -50 11 -50 16 0 5 -11 9 -25
9 -14 0 -25 4 -25 9 0 6 -20 13 -45 17 -25 3 -45 10 -45 14 0 5 -22 11 -50 15
-27 4 -50 11 -50 16 0 5 -11 9 -25 9 -14 0 -25 4 -25 9 0 5 -25 12 -55 16 -30
3 -55 11 -55 16 0 5 -16 9 -35 9 -19 0 -35 4 -35 9 0 5 -25 13 -55 16 -30 4
-55 11 -55 15 0 4 -29 11 -65 15 -36 3 -65 11 -65 16 0 5 -16 9 -35 9 -19 0
-35 4 -35 9 0 4 -31 12 -70 15 -38 4 -70 11 -70 17 0 5 -18 9 -40 9 -22 0 -40
4 -40 9 0 5 -40 12 -90 16 -49 4 -90 11 -90 15 0 4 -40 11 -90 15 -49 4 -90
11 -90 16 0 5 -27 9 -60 9 -33 0 -60 4 -60 9 0 5 -54 12 -120 16 -66 4 -120
11 -120 16 0 5 -36 9 -79 9 -44 0 -81 4 -83 10 -2 5 -110 12 -255 16 -139 4
-253 11 -253 16 0 4 -135 8 -300 8 -165 0 -300 -4 -300 -8z"/>
</g>
</svg>
